HIERARCHY
ROOT joint_Root
{
	OFFSET 0.0 0.0 0.0
	CHANNELS 6 Xposition Yposition Zposition Zrotation Xrotation Yrotation 
	JOINT Hips
	{
		OFFSET 4.5925 91.4895 -427.239
		CHANNELS 6 Xposition Yposition Zposition Zrotation Xrotation Yrotation 
		JOINT Spine
		{
			OFFSET 15.7357 0.0 0.0
			CHANNELS 6 Xposition Yposition Zposition Zrotation Xrotation Yrotation 
			JOINT Chest
			{
				OFFSET 8.98455 -0.406207 0.0
				CHANNELS 6 Xposition Yposition Zposition Zrotation Xrotation Yrotation 
				JOINT Neck
				{
					OFFSET 16.3773 0.0 0.0
					CHANNELS 6 Xposition Yposition Zposition Zrotation Xrotation Yrotation 
					JOINT Head
					{
						OFFSET 6.45672 0.0 0.0
						CHANNELS 6 Xposition Yposition Zposition Zrotation Xrotation Yrotation 
						End Site
						{
							OFFSET 0.0 0.0 0.0
						}
					}
				}
				JOINT Shoulder_L
				{
					OFFSET 12.9942 -0.242716 4.98039
					CHANNELS 6 Xposition Yposition Zposition Zrotation Xrotation Yrotation 
					JOINT UpperArm_L
					{
						OFFSET 5.34809 0.0 0.0
						CHANNELS 6 Xposition Yposition Zposition Zrotation Xrotation Yrotation 
						JOINT LowerArm_L
						{
							OFFSET 24.3286 1.87007e-05 0.0
							CHANNELS 6 Xposition Yposition Zposition Zrotation Xrotation Yrotation 
							JOINT Hand_L
							{
								OFFSET 22.2916 0.0 0.0
								CHANNELS 6 Xposition Yposition Zposition Zrotation Xrotation Yrotation 
								End Site
								{
									OFFSET 0.0 0.0 0.0
								}
							}
						}
					}
				}
				JOINT Shoulder_R
				{
					OFFSET 12.9945 -0.242716 -4.98039
					CHANNELS 6 Xposition Yposition Zposition Zrotation Xrotation Yrotation 
					JOINT UpperArm_R
					{
						OFFSET -5.34813 0.0 0.0
						CHANNELS 6 Xposition Yposition Zposition Zrotation Xrotation Yrotation 
						JOINT LowerArm_R
						{
							OFFSET -24.3289 0.000322201 0.0
							CHANNELS 6 Xposition Yposition Zposition Zrotation Xrotation Yrotation 
							JOINT Hand_R
							{
								OFFSET -22.2915 -0.000108084 0.0
								CHANNELS 6 Xposition Yposition Zposition Zrotation Xrotation Yrotation 
								End Site
								{
									OFFSET 0.0 0.0 0.0
								}
							}
						}
					}
				}
			}
		}
		JOINT UpperLeg_L
		{
			OFFSET -2.19248 -6.46944 0.0
			CHANNELS 6 Xposition Yposition Zposition Zrotation Xrotation Yrotation 
			JOINT LowerLeg_L
			{
				OFFSET 39.0811 0.0 -1.23785e-05
				CHANNELS 6 Xposition Yposition Zposition Zrotation Xrotation Yrotation 
				JOINT Foot_L
				{
					OFFSET 40.9854 0.0 -1.26872e-05
					CHANNELS 6 Xposition Yposition Zposition Zrotation Xrotation Yrotation 
					JOINT Toes_L
					{
						OFFSET 11.7543 0.0 0.0
						CHANNELS 6 Xposition Yposition Zposition Zrotation Xrotation Yrotation 
						End Site
						{
							OFFSET 0.0 0.0 0.0
						}
					}
				}
			}
		}
		JOINT UpperLeg_R
		{
			OFFSET -2.19251 6.46944 0.0
			CHANNELS 6 Xposition Yposition Zposition Zrotation Xrotation Yrotation 
			JOINT LowerLeg_R
			{
				OFFSET -39.0811 -0.00228153 -0.0401928
				CHANNELS 6 Xposition Yposition Zposition Zrotation Xrotation Yrotation 
				JOINT Foot_R
				{
					OFFSET -40.9854 0.0 0.0
					CHANNELS 6 Xposition Yposition Zposition Zrotation Xrotation Yrotation 
					JOINT Toes_R
					{
						OFFSET -11.7543 0.0 0.0
						CHANNELS 6 Xposition Yposition Zposition Zrotation Xrotation Yrotation 
						End Site
						{
							OFFSET 0.0 0.0 0.0
						}
					}
				}
			}
		}
	}
}
MOTION
Frames:	9
Frame Time:	0.0333333
0.000000 0.000000 0.000000 0.000000 0.000000 -0.000000 0.681961 91.663400 -51.643900 85.154600 12.756300 -14.356000 15.735700 0.000005 -0.000001 40.055400 82.205000 -37.133800 8.984550 -0.406207 -0.000000 2.635400 -12.054300 6.132540 16.377300 -0.000001 -0.000001 -1.481300 -3.197760 0.574085 6.456720 -0.000001 -0.000000 -7.506170 1.917560 3.291050 12.994200 -0.242716 4.980390 -87.660300 -9.213350 -75.684600 5.348090 -0.000007 -0.000001 -63.071100 12.858200 -39.331900 24.328600 0.000019 0.000005 7.791620 -1.773930 -102.744000 22.291600 -0.000001 0.000005 0.817996 5.454540 -4.802090 12.994500 -0.242716 -4.980390 90.980200 -2.955580 -71.651900 -5.348130 -0.000001 -0.000004 -63.871200 26.225700 34.440400 -24.328900 0.000322 -0.000009 -8.599440 -6.760840 -52.094600 -22.291500 -0.000108 -0.000004 1.611410 5.551450 -8.774440 -2.192480 -6.469440 -0.000000 -167.681000 -10.212200 1.184180 39.081100 -0.000007 -0.000012 0.037956 -0.081069 25.088200 40.985400 -0.000006 -0.000013 -2.326370 15.607400 -37.789800 11.754300 -0.000000 0.000003 -0.100594 -0.446040 -35.196100 -2.192510 6.469440 -0.000001 -170.717000 2.519870 116.990000 -39.081100 -0.002282 -0.040193 0.112419 0.002204 91.202000 -40.985400 0.000008 0.000006 9.034010 -5.910350 -46.036300 -11.754300 -0.000006 -0.000006 -0.009166 -0.097300 -20.536500
0.000000 0.000000 0.000000 0.000000 0.000000 -0.000000 0.897139 94.409300 -39.493300 86.778000 12.525500 -14.882100 15.735700 0.000005 -0.000001 35.599300 81.836200 -32.607300 8.984550 -0.406207 -0.000000 2.155240 -13.414400 6.253280 16.377300 -0.000001 -0.000001 -0.131194 -2.239350 0.403753 6.456720 -0.000001 -0.000000 -8.543230 3.260140 2.599470 12.994200 -0.242716 4.980390 -87.590800 -9.242570 -75.321400 5.348090 -0.000007 -0.000001 -62.899100 13.964900 -36.675700 24.328600 0.000019 0.000005 8.746060 -2.341870 -104.874000 22.291600 -0.000001 0.000005 0.540341 5.441770 -4.347360 12.994500 -0.242716 -4.980390 92.056500 -6.077900 -71.266100 -5.348130 -0.000001 -0.000004 -65.711900 24.710600 37.786800 -24.328900 0.000322 -0.000009 -9.518110 -6.159080 -57.379000 -22.291500 -0.000108 -0.000004 2.279260 5.556630 -9.023410 -2.192480 -6.469440 -0.000000 -165.383000 -15.852300 7.096070 39.081100 -0.000007 -0.000012 0.073283 -0.191154 20.975500 40.985400 -0.000006 -0.000013 -7.529530 12.441700 -26.900100 11.754300 -0.000000 0.000003 -0.003526 -0.046420 -18.464800 -2.192510 6.469440 -0.000001 -173.529000 2.814860 122.219000 -39.081100 -0.002282 -0.040193 0.153430 -0.055121 69.861700 -40.985400 0.000008 0.000006 8.945000 -5.167560 -55.542500 -11.754300 -0.000006 -0.000006 -0.011950 -0.117673 -21.370100
0.000000 0.000000 0.000000 0.000000 0.000000 -0.000000 1.347180 95.242400 -27.495500 89.056000 13.638000 -14.864100 15.735700 0.000005 -0.000001 31.237100 81.036300 -28.591600 8.984550 -0.406207 -0.000000 1.967520 -15.453700 5.577940 16.377300 -0.000001 -0.000001 -0.129435 -2.300150 1.224710 6.456720 -0.000001 -0.000000 -8.196190 4.687020 2.146850 12.994200 -0.242716 4.980390 -87.497200 -9.483910 -75.143100 5.348090 -0.000007 -0.000001 -63.994300 15.340700 -31.901000 24.328600 0.000019 0.000005 8.502490 -2.537330 -106.496000 22.291600 -0.000001 0.000005 0.478327 5.435830 -4.140760 12.994500 -0.242716 -4.980390 92.172900 -6.200210 -70.641400 -5.348130 -0.000001 -0.000004 -65.620400 25.079100 39.450700 -24.328900 0.000322 -0.000009 -10.390300 -5.623680 -61.874200 -22.291500 -0.000108 -0.000004 2.811780 5.555630 -8.973610 -2.192480 -6.469440 -0.000000 -163.798000 -16.409800 9.457940 39.081100 -0.000007 -0.000012 0.125102 -0.229461 28.599300 40.985400 -0.000006 -0.000013 -3.900540 7.885960 -32.099600 11.754300 -0.000000 0.000003 -0.004949 -0.060979 -19.057800 -2.192510 6.469440 -0.000001 -175.881000 6.473750 128.763000 -39.081100 -0.002282 -0.040193 0.096883 -0.084965 47.777100 -40.985400 0.000008 0.000006 5.557810 1.077570 -61.689700 -11.754300 -0.000006 -0.000006 -0.013844 -0.130414 -21.892300
0.000000 0.000000 0.000000 0.000000 0.000000 -0.000000 1.859620 94.990700 -15.190400 92.698500 15.047800 -13.428800 15.735700 0.000005 -0.000001 30.163300 80.172700 -28.418400 8.984550 -0.406207 -0.000000 2.476990 -17.061400 3.877860 16.377300 -0.000001 -0.000001 -0.191324 -3.218500 1.739460 6.456720 -0.000001 -0.000000 -7.622120 5.152200 1.571020 12.994200 -0.242716 4.980390 -87.627500 -9.414370 -75.786600 5.348090 -0.000007 -0.000001 -66.419500 17.471300 -25.045200 24.328600 0.000019 0.000005 7.244360 -2.063820 -105.814000 22.291600 -0.000001 0.000005 2.196800 5.437440 -4.192170 12.994500 -0.242716 -4.980390 91.964500 -5.308390 -69.656300 -5.348130 -0.000001 -0.000004 -65.379400 24.089800 38.012900 -24.328900 0.000322 -0.000009 -10.071900 -5.277240 -62.620600 -22.291500 -0.000108 -0.000004 3.326270 5.561770 -9.272630 -2.192480 -6.469440 -0.000000 -165.578000 -10.535600 12.534100 39.081100 -0.000007 -0.000012 0.191458 -0.254574 36.945700 40.985400 -0.000006 -0.000013 -0.660370 -1.565500 -32.307000 11.754300 -0.000000 0.000003 -0.003948 -0.050906 -18.647500 -2.192510 6.469440 -0.000001 -178.749000 12.235200 136.808000 -39.081100 -0.002282 -0.040193 -0.030268 0.063524 27.857600 -40.985400 0.000008 0.000006 -0.074760 9.800310 -66.608900 -11.754300 -0.000006 -0.000006 -0.015999 -0.144019 -22.450700
0.000000 0.000000 0.000000 0.000000 0.000000 -0.000000 2.264710 93.796500 -2.774780 95.004200 14.802800 -11.697700 15.735700 0.000005 -0.000001 33.388000 80.107000 -32.275600 8.984550 -0.406207 -0.000000 3.407830 -16.544600 2.729800 16.377300 -0.000001 -0.000001 0.047438 -4.098090 2.112950 6.456720 -0.000001 -0.000000 -8.047090 4.444890 1.196910 12.994200 -0.242716 4.980390 -87.840000 -8.697420 -75.994500 5.348090 -0.000007 -0.000001 -68.541400 20.937800 -18.535100 24.328600 0.000019 0.000005 6.752660 -1.420430 -101.831000 22.291600 -0.000001 0.000005 5.041410 5.444450 -4.433220 12.994500 -0.242716 -4.980390 91.321100 -3.513370 -69.378700 -5.348130 -0.000001 -0.000004 -65.241900 21.450100 34.293200 -24.328900 0.000322 -0.000009 -9.427240 -5.200810 -61.364200 -22.291500 -0.000108 -0.000004 4.631690 5.571310 -9.746760 -2.192480 -6.469440 -0.000000 -168.954000 -4.991060 15.088600 39.081100 -0.000007 -0.000012 0.301735 -0.280081 47.131400 40.985400 -0.000006 -0.000013 4.349060 -6.093720 -32.006200 11.754300 -0.000000 0.000003 -0.003361 -0.044630 -18.392000 -2.192510 6.469440 -0.000001 -177.272000 20.264500 140.454000 -39.081100 -0.002282 -0.040193 -0.092632 0.285197 18.595800 -40.985400 0.000008 0.000006 -1.955090 18.419200 -73.032700 -11.754300 -0.000006 -0.000006 -0.019487 -0.164431 -23.290200
0.000000 0.000000 0.000000 0.000000 0.000000 -0.000000 2.487900 91.569900 9.434270 95.371400 12.471300 -9.680930 15.735700 0.000005 -0.000001 41.250100 80.680200 -40.273800 8.984550 -0.406207 -0.000000 4.759870 -14.014500 2.543250 16.377300 -0.000001 -0.000001 0.020149 -4.134120 1.577270 6.456720 -0.000001 -0.000000 -8.718870 2.839360 1.497590 12.994200 -0.242716 4.980390 -88.237400 -6.803330 -75.436700 5.348090 -0.000007 -0.000001 -68.135900 25.423600 -13.262400 24.328600 0.000019 0.000005 7.828740 -0.687578 -95.008200 22.291600 -0.000001 0.000005 6.138510 5.450450 -4.657670 12.994500 -0.242716 -4.980390 90.196600 -0.544189 -70.200400 -5.348130 -0.000001 -0.000004 -64.384400 18.673200 29.169900 -24.328900 0.000322 -0.000009 -9.307040 -5.110930 -61.468400 -22.291500 -0.000108 -0.000004 6.559810 5.587140 -10.592200 -2.192480 -6.469440 -0.000000 -171.923000 -2.149150 14.929800 39.081100 -0.000007 -0.000012 0.391872 -0.209182 61.906500 40.985400 -0.000006 -0.000013 1.584610 -5.653520 -30.432400 11.754300 -0.000000 0.000003 -0.002749 -0.037741 -18.111600 -2.192510 6.469440 -0.000001 -174.240000 26.235300 141.350000 -39.081100 -0.002282 -0.040193 -0.163176 0.442810 20.606500 -40.985400 0.000008 0.000006 -8.720500 18.967200 -74.269900 -11.754300 -0.000006 -0.000006 -0.020318 -0.169043 -23.480100
0.000000 0.000000 0.000000 0.000000 0.000000 -0.000000 2.403650 88.619200 20.702900 93.576400 8.411530 -8.955330 15.735700 0.000005 -0.000001 51.606700 81.584300 -50.196100 8.984550 -0.406207 -0.000000 5.630340 -10.455100 3.339600 16.377300 -0.000001 -0.000001 -0.814954 -3.196300 0.496712 6.456720 -0.000001 -0.000000 -9.133480 1.327070 2.379480 12.994200 -0.242716 4.980390 -88.952600 -3.751760 -74.379300 5.348090 -0.000007 -0.000001 -64.787700 29.936900 -8.808670 24.328600 0.000019 0.000005 10.305700 0.802676 -85.611200 22.291600 -0.000001 0.000005 4.575710 5.475160 -5.578830 12.994500 -0.242716 -4.980390 88.827700 3.757000 -72.627600 -5.348130 -0.000001 -0.000004 -61.940400 16.530900 21.668200 -24.328900 0.000322 -0.000009 -10.029700 -5.119290 -63.224800 -22.291500 -0.000108 -0.000004 7.932120 5.601220 -11.412800 -2.192480 -6.469440 -0.000000 -172.888000 -2.954970 8.776470 39.081100 -0.000007 -0.000012 0.602779 -0.093294 81.201600 40.985400 -0.000006 -0.000013 -3.958500 -2.165710 -23.620500 11.754300 -0.000000 0.000003 -0.003384 -0.044875 -18.401900 -2.192510 6.469440 -0.000001 -170.983000 22.329000 137.008000 -39.081100 -0.002282 -0.040193 0.524383 -0.730046 35.520000 -40.985400 0.000008 0.000006 8.528040 6.866820 -72.317200 -11.754300 -0.000006 -0.000006 -0.033083 -0.231263 -26.055200
0.000000 0.000000 0.000000 0.000000 0.000000 -0.000000 2.253560 85.057800 30.396000 91.321200 3.735750 -9.535250 15.735700 0.000005 -0.000001 63.803600 82.584100 -61.842400 8.984550 -0.406207 -0.000000 5.687220 -6.567260 4.248010 16.377300 -0.000001 -0.000001 -2.876590 -1.919840 -0.579024 6.456720 -0.000001 -0.000000 -8.828870 0.627573 1.889930 12.994200 -0.242716 4.980390 -89.928400 -0.239340 -73.257000 5.348090 -0.000007 -0.000001 -60.109500 35.086900 -5.253850 24.328600 0.000019 0.000005 11.281400 3.797570 -71.653800 22.291600 -0.000001 0.000005 1.525490 5.508080 -6.881030 12.994500 -0.242716 -4.980390 87.704000 8.621540 -75.018400 -5.348130 -0.000001 -0.000004 -57.247200 14.491000 9.894860 -24.328900 0.000322 -0.000009 -9.602700 -4.557770 -64.839000 -22.291500 -0.000108 -0.000004 9.287430 5.609830 -11.957500 -2.192480 -6.469440 -0.000000 -173.206000 -6.060630 -3.849950 39.081100 -0.000007 -0.000012 0.844352 0.190902 102.738000 40.985400 -0.000006 -0.000013 -6.968710 -3.776940 -12.018100 11.754300 -0.000000 0.000003 -0.003169 -0.042509 -18.305600 -2.192510 6.469440 -0.000001 -172.732000 11.439100 133.766000 -39.081100 -0.002282 -0.040193 -0.018085 0.017628 50.428700 -40.985400 0.000008 0.000006 7.820880 1.047530 -65.550200 -11.754300 -0.000006 -0.000006 -0.016098 -0.144625 -22.475600
0.000000 0.000000 0.000000 0.000000 0.000000 -0.000000 1.815090 81.889900 40.206300 88.631300 -1.586330 -7.052280 15.735700 0.000005 -0.000001 79.152500 81.797800 -76.741000 8.984550 -0.406207 -0.000000 8.423350 -3.058980 5.044890 16.377300 -0.000001 -0.000001 -3.902260 -0.198692 -0.498370 6.456720 -0.000001 -0.000000 -9.357250 1.236390 0.357940 12.994200 -0.242716 4.980390 -90.010300 0.033055 -72.500400 5.348090 -0.000007 -0.000001 -62.401800 35.431700 -0.483833 24.328600 0.000019 0.000005 11.767800 9.672130 -51.169600 22.291600 -0.000001 0.000005 -0.595956 5.530520 -7.814250 12.994500 -0.242716 -4.980390 87.615300 10.921000 -77.603400 -5.348130 -0.000001 -0.000004 -55.232100 10.983300 -8.302040 -24.328900 0.000322 -0.000009 -5.046480 -2.195700 -66.579500 -22.291500 -0.000108 -0.000004 13.043400 5.609700 -11.939700 -2.192480 -6.469440 -0.000000 -172.782000 -9.336310 -16.656200 39.081100 -0.000007 -0.000012 0.712812 0.418275 120.402000 40.985400 -0.000006 -0.000013 -5.853090 -2.077900 -3.505330 11.754300 -0.000000 0.000003 -0.003081 -0.041517 -18.265200 -2.192510 6.469440 -0.000001 -171.438000 4.649970 138.138000 -39.081100 -0.002282 -0.040193 -0.308863 0.163847 62.297700 -40.985400 0.000008 0.000006 10.994200 -3.814880 -78.100300 -11.754300 -0.000006 -0.000006 -0.004931 -0.060794 -19.046600
